<?xml version="1.0" encoding="UTF-8" standalone="no"?>
<!-- Created with Inkscape (http://www.inkscape.org/) -->

<svg
   xmlns:dc="http://purl.org/dc/elements/1.1/"
   xmlns:cc="http://creativecommons.org/ns#"
   xmlns:rdf="http://www.w3.org/1999/02/22-rdf-syntax-ns#"
   xmlns:svg="http://www.w3.org/2000/svg"
   xmlns="http://www.w3.org/2000/svg"
   xmlns:sodipodi="http://sodipodi.sourceforge.net/DTD/sodipodi-0.dtd"
   xmlns:inkscape="http://www.inkscape.org/namespaces/inkscape"
   id="svg3043"
   version="1.1"
   inkscape:version="0.48.3.1 r9886"
   width="240"
   height="240"
   xml:space="preserve"
   sodipodi:docname="attendance.svg"><title
     id="title2998">Amana Base Attendance Icon</title><metadata
     id="metadata3049"><rdf:RDF><cc:Work
         rdf:about=""><dc:format>image/svg+xml</dc:format><dc:type
           rdf:resource="http://purl.org/dc/dcmitype/StillImage" /><dc:title>Amana Base Attendance Icon</dc:title><dc:date></dc:date><dc:creator><cc:Agent><dc:title>Luiz Henrique Canet Filho</dc:title></cc:Agent></dc:creator><dc:relation>Amana Base Icons</dc:relation><cc:license
           rdf:resource="http://creativecommons.org/licenses/by-sa/3.0/" /></cc:Work><cc:License
         rdf:about="http://creativecommons.org/licenses/by-sa/3.0/"><cc:permits
           rdf:resource="http://creativecommons.org/ns#Reproduction" /><cc:permits
           rdf:resource="http://creativecommons.org/ns#Distribution" /><cc:requires
           rdf:resource="http://creativecommons.org/ns#Notice" /><cc:requires
           rdf:resource="http://creativecommons.org/ns#Attribution" /><cc:permits
           rdf:resource="http://creativecommons.org/ns#DerivativeWorks" /><cc:requires
           rdf:resource="http://creativecommons.org/ns#ShareAlike" /></cc:License></rdf:RDF></metadata><defs
     id="defs3047"><clipPath
       clipPathUnits="userSpaceOnUse"
       id="clipPath3057"><path
         d="M 0,192 192,192 192,0 0,0 0,192 z"
         id="path3059" /></clipPath></defs><sodipodi:namedview
     pagecolor="#ffffff"
     bordercolor="#666666"
     borderopacity="1"
     objecttolerance="10"
     gridtolerance="10"
     guidetolerance="10"
     inkscape:pageopacity="0"
     inkscape:pageshadow="2"
     inkscape:window-width="1600"
     inkscape:window-height="876"
     id="namedview3045"
     showgrid="false"
     inkscape:zoom="0.98333333"
     inkscape:cx="-141.86441"
     inkscape:cy="120"
     inkscape:window-x="0"
     inkscape:window-y="24"
     inkscape:window-maximized="1"
     inkscape:current-layer="g3051" /><g
     id="g3051"
     inkscape:groupmode="layer"
     inkscape:label="Amana Base Icons"
     transform="matrix(1.25,0,0,-1.25,0,240)"><g
       id="g3053"><g
         id="g3055"
         clip-path="url(#clipPath3057)"><g
           id="g3061"
           transform="translate(121.4971,91.3389)"><path
             d="m 0,0 c -7.389,-4.644 -16.126,-7.339 -25.497,-7.339 -9.371,0 -18.108,2.695 -25.497,7.339 -27.177,-10.296 -46.503,-36.555 -46.503,-67.339 l 144,0 C 46.503,-36.555 27.177,-10.296 0,0"
             style="fill:#000000;fill-opacity:1;fill-rule:nonzero;stroke:none"
             id="path3063" /></g><g
           id="g3065"
           transform="translate(57,144)"><path
             d="m 0,0 -6,0 c -3.313,0 -6,-2.687 -6,-6 l 0,-12 c 0,-3.313 2.687,-6 6,-6 l 6,0 0,24 z"
             style="fill:#000000;fill-opacity:1;fill-rule:nonzero;stroke:none"
             id="path3067" /></g><g
           id="g3069"
           transform="translate(135,144)"><path
             d="m 0,0 6,0 c 3.313,0 6,-2.687 6,-6 l 0,-12 c 0,-3.313 -2.687,-6 -6,-6 l -6,0 0,24 z"
             style="fill:#000000;fill-opacity:1;fill-rule:nonzero;stroke:none"
             id="path3071" /></g><g
           id="g3073"
           transform="translate(56.7686,147)"><path
             d="M 0,0 C 6.04,15.786 21.322,27 39.231,27 57.141,27 72.423,15.786 78.463,0 l 6.364,0 C 78.527,19.161 60.5,33 39.231,33 17.963,33 -0.064,19.161 -6.364,0 L 0,0 z"
             style="fill:#000000;fill-opacity:1;fill-rule:nonzero;stroke:none"
             id="path3075" /></g><g
           id="g3077"
           transform="translate(111,107)"><path
             d="m 0,0 -6,0 c -1.657,0 -3,1.343 -3,3 0,1.657 1.343,3 3,3 L 0,6 C 1.657,6 3,4.657 3,3 3,1.343 1.657,0 0,0 m 6,4 8.231,0 C 18.486,9.912 21,17.16 21,25 21,44.882 4.882,61 -15,61 -34.882,61 -51,44.882 -51,25 c 0,-19.882 16.118,-36 36,-36 10.66,0 20.234,4.637 26.826,12 L 6,1 6,4 z"
             style="fill:#000000;fill-opacity:1;fill-rule:nonzero;stroke:none"
             id="path3079" /></g><g
           id="g3081"
           transform="translate(135,117)"><path
             d="m 0,0 0,-3 c 0,-1.657 -1.343,-3 -3,-3 l -6.769,0 c -0.75,-1.042 -1.55,-2.045 -2.405,-3 L -3,-9 c 3.313,0 6,2.687 6,6 L 3,0 0,0 z"
             style="fill:#000000;fill-opacity:1;fill-rule:nonzero;stroke:none"
             id="path3083" /></g></g></g></g></svg>