<?xml version="1.0" encoding="UTF-8" standalone="no"?>
<!-- Created with Inkscape (http://www.inkscape.org/) -->

<svg
   xmlns:dc="http://purl.org/dc/elements/1.1/"
   xmlns:cc="http://creativecommons.org/ns#"
   xmlns:rdf="http://www.w3.org/1999/02/22-rdf-syntax-ns#"
   xmlns:svg="http://www.w3.org/2000/svg"
   xmlns="http://www.w3.org/2000/svg"
   xmlns:sodipodi="http://sodipodi.sourceforge.net/DTD/sodipodi-0.dtd"
   xmlns:inkscape="http://www.inkscape.org/namespaces/inkscape"
   id="svg2"
   version="1.1"
   inkscape:version="0.48.3.1 r9886"
   width="240"
   height="240"
   xml:space="preserve"
   sodipodi:docname="audio.svg"><title
     id="title2992">Amana Base Audio Icon</title><metadata
     id="metadata8"><rdf:RDF><cc:Work
         rdf:about=""><dc:format>image/svg+xml</dc:format><dc:type
           rdf:resource="http://purl.org/dc/dcmitype/StillImage" /><dc:title>Amana Base Audio Icon</dc:title><cc:license
           rdf:resource="http://creativecommons.org/licenses/by-sa/3.0/" /><dc:creator><cc:Agent><dc:title>Luiz Henrique Canet Filho</dc:title></cc:Agent></dc:creator><dc:relation>Amana Base Icons</dc:relation></cc:Work><cc:License
         rdf:about="http://creativecommons.org/licenses/by-sa/3.0/"><cc:permits
           rdf:resource="http://creativecommons.org/ns#Reproduction" /><cc:permits
           rdf:resource="http://creativecommons.org/ns#Distribution" /><cc:requires
           rdf:resource="http://creativecommons.org/ns#Notice" /><cc:requires
           rdf:resource="http://creativecommons.org/ns#Attribution" /><cc:permits
           rdf:resource="http://creativecommons.org/ns#DerivativeWorks" /><cc:requires
           rdf:resource="http://creativecommons.org/ns#ShareAlike" /></cc:License></rdf:RDF></metadata><defs
     id="defs6"><clipPath
       clipPathUnits="userSpaceOnUse"
       id="clipPath16"><path
         d="M 0,192 192,192 192,0 0,0 0,192 z"
         id="path18" /></clipPath></defs><sodipodi:namedview
     pagecolor="#ffffff"
     bordercolor="#666666"
     borderopacity="1"
     objecttolerance="10"
     gridtolerance="10"
     guidetolerance="10"
     inkscape:pageopacity="0"
     inkscape:pageshadow="2"
     inkscape:window-width="1600"
     inkscape:window-height="876"
     id="namedview4"
     showgrid="true"
     inkscape:zoom="1"
     inkscape:cx="-49.04037"
     inkscape:cy="120.1524"
     inkscape:window-x="0"
     inkscape:window-y="24"
     inkscape:window-maximized="1"
     inkscape:current-layer="layer1"
     showguides="true"
     inkscape:guide-bbox="true"
     inkscape:snap-global="true"
     inkscape:snap-nodes="true"
     inkscape:object-nodes="true"><inkscape:grid
       type="xygrid"
       id="grid3003" /><sodipodi:guide
       orientation="0,1"
       position="30,210"
       id="guide2993" /><sodipodi:guide
       orientation="1,0"
       position="30,210"
       id="guide2995" /><sodipodi:guide
       orientation="0,1"
       position="210,30"
       id="guide2997" /><sodipodi:guide
       orientation="1,0"
       position="210,30"
       id="guide2999" /></sodipodi:namedview><g
     inkscape:groupmode="layer"
     id="layer1"
     inkscape:label="Icon"
     style="display:inline"><path
       id="path3001"
       style="fill:#000000;fill-opacity:1;stroke:none"
       d="M 181.875,52.125 169.1625,64.8375 C 183.27773,78.952723 192,98.4609 192,120 c 0,21.5391 -8.72227,41.04727 -22.8375,55.1625 L 181.875,187.875 C 199.24758,170.50242 210,146.50967 210,120 210,93.490332 199.24758,69.497584 181.875,52.125 z M 156.4125,77.5875 143.7,90.3 c 7.6005,7.6005 12.3,18.10201 12.3,29.7 0,11.59799 -4.6995,22.0995 -12.3,29.7 l 12.7125,12.7125 C 167.27036,151.55464 174,136.56854 174,120 174,103.43146 167.27036,88.445364 156.4125,77.5875 z m -30,-41.5875 -54,54 L 36,90 c -3.324,0 -6,2.676 -6,6 l 0,48 c 0,3.324 2.676,6 6,6 l 36.4125,0 54,54 0,-168 z"
       inkscape:connector-curvature="0" /></g></svg>