<?xml version="1.0" encoding="UTF-8" standalone="no"?>
<!-- Created with Inkscape (http://www.inkscape.org/) -->

<svg
   xmlns:dc="http://purl.org/dc/elements/1.1/"
   xmlns:cc="http://creativecommons.org/ns#"
   xmlns:rdf="http://www.w3.org/1999/02/22-rdf-syntax-ns#"
   xmlns:svg="http://www.w3.org/2000/svg"
   xmlns="http://www.w3.org/2000/svg"
   xmlns:sodipodi="http://sodipodi.sourceforge.net/DTD/sodipodi-0.dtd"
   xmlns:inkscape="http://www.inkscape.org/namespaces/inkscape"
   id="svg2"
   version="1.1"
   inkscape:version="0.48.3.1 r9886"
   width="240"
   height="240"
   xml:space="preserve"
   sodipodi:docname="course.svg"><title
     id="title3002">Amana Base Course Icon</title><metadata
     id="metadata8"><rdf:RDF><cc:Work
         rdf:about=""><dc:format>image/svg+xml</dc:format><dc:type
           rdf:resource="http://purl.org/dc/dcmitype/StillImage" /><dc:title>Amana Base Course Icon</dc:title><dc:creator><cc:Agent><dc:title>Luiz Henrique Canet Filho</dc:title></cc:Agent></dc:creator><dc:relation>Amana Base Icons</dc:relation><cc:license
           rdf:resource="http://creativecommons.org/licenses/by-sa/3.0/" /></cc:Work><cc:License
         rdf:about="http://creativecommons.org/licenses/by-sa/3.0/"><cc:permits
           rdf:resource="http://creativecommons.org/ns#Reproduction" /><cc:permits
           rdf:resource="http://creativecommons.org/ns#Distribution" /><cc:requires
           rdf:resource="http://creativecommons.org/ns#Notice" /><cc:requires
           rdf:resource="http://creativecommons.org/ns#Attribution" /><cc:permits
           rdf:resource="http://creativecommons.org/ns#DerivativeWorks" /><cc:requires
           rdf:resource="http://creativecommons.org/ns#ShareAlike" /></cc:License></rdf:RDF></metadata><defs
     id="defs6"><clipPath
       clipPathUnits="userSpaceOnUse"
       id="clipPath16"><path
         d="M 0,192 192,192 192,0 0,0 0,192 z"
         id="path18" /></clipPath><clipPath
       id="clipPath3018"
       clipPathUnits="userSpaceOnUse"><path
         id="path3020"
         d="M 0,192 192,192 192,0 0,0 0,192 z" /></clipPath></defs><sodipodi:namedview
     pagecolor="#ffffff"
     bordercolor="#666666"
     borderopacity="1"
     objecttolerance="10"
     gridtolerance="10"
     guidetolerance="10"
     inkscape:pageopacity="0"
     inkscape:pageshadow="2"
     inkscape:window-width="1600"
     inkscape:window-height="876"
     id="namedview4"
     showgrid="true"
     inkscape:zoom="2"
     inkscape:cx="-65.3864"
     inkscape:cy="100.91858"
     inkscape:window-x="0"
     inkscape:window-y="24"
     inkscape:window-maximized="1"
     inkscape:current-layer="layer1"
     showguides="true"
     inkscape:guide-bbox="true"
     inkscape:snap-global="true"
     inkscape:snap-nodes="true"><inkscape:grid
       type="xygrid"
       id="grid3003" /><sodipodi:guide
       orientation="0,1"
       position="30,210"
       id="guide2993" /><sodipodi:guide
       orientation="1,0"
       position="30,210"
       id="guide2995" /><sodipodi:guide
       orientation="0,1"
       position="210,30"
       id="guide2997" /><sodipodi:guide
       orientation="1,0"
       position="210,30"
       id="guide2999" /></sodipodi:namedview><g
     inkscape:groupmode="layer"
     id="layer1"
     inkscape:label="Icon"
     style="display:inline"><a
       id="a2992" /><path
       style="fill:#000000;fill-opacity:1;stroke:none"
       d="m 35,50 c -2.77,0 -5,2.23 -5,5 l 0,105 c 0,2.77 2.23,5 5,5 l 35,0 0,-5 -35,0 0,-105 150,0 0,35 5,0 0,-35 c 0,-2.77 -2.23,-5 -5,-5 z"
       id="path3001"
       inkscape:connector-curvature="0"
       sodipodi:nodetypes="sssscccccccsss"
       inkscape:export-filename="/home/luiz/Dropbox/Amana Base Icons/png/64/course.png"
       inkscape:export-xdpi="31.988575"
       inkscape:export-ydpi="31.988575" /><g
       transform="matrix(0.62499826,0,0,-0.62499826,105.06452,200.08665)"
       inkscape:label="Amana Base Icons"
       id="g3012"
       inkscape:export-filename="/home/luiz/Dropbox/Amana Base Icons/png/64/course.png"
       inkscape:export-xdpi="31.988575"
       inkscape:export-ydpi="31.988575"><g
         id="g3014"><g
           clip-path="url(#clipPath3018)"
           id="g3016"><g
             transform="translate(132,132)"
             id="g3022"><path
               id="path3024"
               style="fill:#000000;fill-opacity:1;fill-rule:nonzero;stroke:none"
               d="m 0,0 c 0,-19.883 -16.118,-36 -36,-36 -19.882,0 -36,16.117 -36,36 0,19.883 16.118,36 36,36 C -16.118,36 0,19.883 0,0"
               inkscape:connector-curvature="0" /></g><g
             transform="translate(121.4971,91.3389)"
             id="g3026"><path
               id="path3028"
               style="fill:#000000;fill-opacity:1;fill-rule:nonzero;stroke:none"
               d="m 0,0 c -7.389,-4.644 -16.126,-7.339 -25.497,-7.339 -9.371,0 -18.108,2.695 -25.497,7.339 -27.177,-10.296 -46.503,-36.555 -46.503,-67.339 l 144,0 C 46.503,-36.555 27.177,-10.296 0,0"
               inkscape:connector-curvature="0" /></g></g></g></g><path
       style="fill:#000000;stroke:none"
       d="M 148.15633,143.46182 102.92363,162.84726 90,137 c 0,0 -3.015513,-5.1156 -9.208086,-2.26164 -6.192573,2.85397 -3.715543,8.72346 -3.715543,8.72346 L 90,169.30907 c 0,0 2.100089,4.41558 8.561914,6.46182 6.461796,2.04624 10.823526,0 10.823526,0 l 45.23271,-19.38545 z"
       id="path3076"
       inkscape:connector-curvature="0"
       sodipodi:nodetypes="ccczcczccc"
       inkscape:export-filename="/home/luiz/Dropbox/Amana Base Icons/png/64/course.png"
       inkscape:export-xdpi="31.988575"
       inkscape:export-ydpi="31.988575" /><rect
       style="fill:#000000;stroke:none"
       id="rect3864"
       width="55"
       height="5"
       x="97.583305"
       y="-4.282032"
       transform="matrix(0.5,0.8660254,-0.8660254,0.5,0,0)"
       inkscape:export-filename="/home/luiz/Dropbox/Amana Base Icons/png/64/course.png"
       inkscape:export-xdpi="31.988575"
       inkscape:export-ydpi="31.988575" /></g></svg>