<?xml version="1.0" encoding="UTF-8" standalone="no"?>
<!-- Created with Inkscape (http://www.inkscape.org/) -->

<svg
   xmlns:dc="http://purl.org/dc/elements/1.1/"
   xmlns:cc="http://creativecommons.org/ns#"
   xmlns:rdf="http://www.w3.org/1999/02/22-rdf-syntax-ns#"
   xmlns:svg="http://www.w3.org/2000/svg"
   xmlns="http://www.w3.org/2000/svg"
   xmlns:sodipodi="http://sodipodi.sourceforge.net/DTD/sodipodi-0.dtd"
   xmlns:inkscape="http://www.inkscape.org/namespaces/inkscape"
   id="svg2"
   version="1.1"
   inkscape:version="0.48.3.1 r9886"
   width="240"
   height="240"
   xml:space="preserve"
   sodipodi:docname="date.svg"><title
     id="title2995">Amana Base Date Icon</title><metadata
     id="metadata8"><rdf:RDF><cc:Work
         rdf:about=""><dc:format>image/svg+xml</dc:format><dc:type
           rdf:resource="http://purl.org/dc/dcmitype/StillImage" /><dc:title>Amana Base Date Icon</dc:title><dc:creator><cc:Agent><dc:title>Luiz Henrique Canet Filho</dc:title></cc:Agent></dc:creator><dc:relation>Amana Base Icons</dc:relation><cc:license
           rdf:resource="http://creativecommons.org/licenses/by-sa/3.0/" /></cc:Work><cc:License
         rdf:about="http://creativecommons.org/licenses/by-sa/3.0/"><cc:permits
           rdf:resource="http://creativecommons.org/ns#Reproduction" /><cc:permits
           rdf:resource="http://creativecommons.org/ns#Distribution" /><cc:requires
           rdf:resource="http://creativecommons.org/ns#Notice" /><cc:requires
           rdf:resource="http://creativecommons.org/ns#Attribution" /><cc:permits
           rdf:resource="http://creativecommons.org/ns#DerivativeWorks" /><cc:requires
           rdf:resource="http://creativecommons.org/ns#ShareAlike" /></cc:License></rdf:RDF></metadata><defs
     id="defs6"><clipPath
       clipPathUnits="userSpaceOnUse"
       id="clipPath16"><path
         d="M 0,192 192,192 192,0 0,0 0,192 z"
         id="path18" /></clipPath></defs><sodipodi:namedview
     pagecolor="#ffffff"
     bordercolor="#666666"
     borderopacity="1"
     objecttolerance="10"
     gridtolerance="10"
     guidetolerance="10"
     inkscape:pageopacity="0"
     inkscape:pageshadow="2"
     inkscape:window-width="1600"
     inkscape:window-height="876"
     id="namedview4"
     showgrid="true"
     inkscape:zoom="2.8284271"
     inkscape:cx="23.713591"
     inkscape:cy="128.03284"
     inkscape:window-x="0"
     inkscape:window-y="24"
     inkscape:window-maximized="1"
     inkscape:current-layer="text3000"
     showguides="true"
     inkscape:guide-bbox="true"
     inkscape:snap-global="true"><inkscape:grid
       type="xygrid"
       id="grid3003" /><sodipodi:guide
       orientation="0,1"
       position="30,210"
       id="guide2993" /><sodipodi:guide
       orientation="1,0"
       position="30,210"
       id="guide2995" /><sodipodi:guide
       orientation="0,1"
       position="210,30"
       id="guide2997" /><sodipodi:guide
       orientation="1,0"
       position="210,30"
       id="guide2999" /></sodipodi:namedview><g
     inkscape:groupmode="layer"
     id="layer1"
     inkscape:label="Icon"
     style="display:inline"><path
       style="fill:#000000;fill-opacity:1;stroke:none"
       d="m 35,30 c -2.77,0 -5,2.23 -5,5 l 0,170 c 0,2.77 2.23,5 5,5 l 170,0 c 2.77,0 5,-2.23 5,-5 l 0,-170 c 0,-2.77 -2.23,-5 -5,-5 z m 0,5 170,0 0,170 -170,0 z"
       id="rect3002"
       inkscape:connector-curvature="0"
       sodipodi:nodetypes="sssssssssccccc"
       inkscape:export-filename="/home/luiz/Dropbox/Amana Base Icons/png/16/calendar.png"
       inkscape:export-xdpi="8"
       inkscape:export-ydpi="8" /><g
       style="font-size:40px;font-style:normal;font-weight:normal;line-height:125%;letter-spacing:0px;word-spacing:0px;fill:#000000;fill-opacity:1;stroke:none;font-family:Sans"
       id="text3000"
       inkscape:export-filename="/home/luiz/Dropbox/Amana Base Icons/png/16/calendar.png"
       inkscape:export-xdpi="8"
       inkscape:export-ydpi="8"><path
         d="m 109.47308,113.52568 c -6e-5,4.73441 -1.03131,8.95316 -3.09375,12.65625 -2.06256,3.70315 -5.34381,6.6094 -9.843754,8.71875 l 0,0.28125 c 2.203075,0.6094 4.218694,1.5469 6.046874,2.8125 1.82807,1.26564 3.39838,2.81252 4.71094,4.64063 1.35931,1.82813 2.414,3.91407 3.16406,6.25781 0.74994,2.29688 1.12494,4.85156 1.125,7.66406 -6e-5,4.59375 -0.75006,8.74218 -2.25,12.44531 -1.45318,3.70311 -3.67974,6.86717 -6.67969,9.49219 -3.000047,2.62498 -6.773481,4.6406 -11.320309,6.04688 -4.500038,1.40622 -9.77347,2.10934 -15.820313,2.10937 -1.687524,-3e-5 -3.468773,-0.0938 -5.34375,-0.28125 -1.875019,-0.14065 -3.750017,-0.39847 -5.625,-0.77344 -1.828138,-0.32815 -3.632824,-0.75002 -5.414062,-1.26562 -1.734383,-0.51565 -3.328132,-1.12503 -4.78125,-1.82813 l 0,-14.48437 c 2.624992,1.21874 5.648426,2.24999 9.070312,3.09375 3.468733,0.84373 7.218729,1.26561 11.25,1.26562 3.656221,-1e-5 6.726531,-0.42189 9.210938,-1.26562 2.531213,-0.84376 4.570273,-1.9922 6.117187,-3.44531 1.546833,-1.40626 2.648394,-3.07032 3.304688,-4.99219 0.70308,-1.87501 1.054642,-3.86719 1.054687,-5.97656 -4.5e-5,-3.09375 -0.656294,-5.64844 -1.96875,-7.66407 -1.265667,-2.06249 -3.09379,-3.60936 -5.484375,-4.64062 -1.218786,-0.51561 -2.625035,-0.86718 -4.21875,-1.05469 -1.546907,-0.23436 -3.421905,-0.35155 -5.625,-0.35156 l -10.96875,0 0,-14.13281 7.453125,0 c 2.156224,2e-5 4.078097,-0.0937 5.765625,-0.28125 1.687468,-0.23435 3.210904,-0.63279 4.570313,-1.19532 2.671837,-1.07809 4.734335,-2.71871 6.1875,-4.92187 1.453082,-2.24996 2.179644,-5.06246 2.179687,-8.4375 -4.3e-5,-2.20308 -0.421917,-4.05464 -1.265625,-5.55469 -0.843791,-1.54682 -1.992227,-2.78901 -3.445312,-3.72656 -1.453162,-0.93745 -3.164098,-1.61713 -5.132813,-2.03906 -1.968781,-0.42182 -3.914092,-0.63276 -5.835937,-0.63282 -3.937524,6e-5 -7.59377,0.3985 -10.96875,1.19532 -3.328138,0.75005 -6.585948,1.7813 -9.773438,3.09375 l 0,-14.414067 c 3.046866,-1.171808 6.398425,-2.156182 10.054688,-2.953125 3.656229,-0.796806 7.945288,-1.195243 12.867187,-1.195312 4.781216,6.9e-5 9.070274,0.679756 12.867188,2.039062 3.843703,1.312567 7.078075,3.14069 9.703129,5.484375 2.67182,2.296935 4.68744,5.015687 6.04687,8.156247 1.40619,3.0938 2.10932,6.44536 2.10938,10.05469"
         style="font-size:144px;font-variant:normal;font-weight:bold;font-stretch:normal;font-family:Corbel;-inkscape-font-specification:Corbel Bold"
         id="path3009" /><path
         d="m 149.41058,170.86719 0,-63.66963 -23.69532,6.75 0,-14.765629 27.5625,-9.703125 12.79688,0 0,81.388384 19.82812,0 0,14.13281 -58.78125,0 0,-14.13281 22.28907,0"
         style="font-size:144px;font-variant:normal;font-weight:bold;font-stretch:normal;font-family:Corbel;-inkscape-font-specification:Corbel Bold"
         id="path3011"
         inkscape:connector-curvature="0"
         sodipodi:nodetypes="cccccccccccc" /></g><path
       sodipodi:type="arc"
       style="fill:#000000;stroke:none"
       id="path3004"
       sodipodi:cx="85"
       sodipodi:cy="50"
       sodipodi:rx="10"
       sodipodi:ry="10"
       d="m 95,50 a 10,10 0 1 1 -20,0 10,10 0 1 1 20,0 z"
       transform="translate(0,4.7071068)"
       inkscape:export-filename="/home/luiz/Dropbox/Amana Base Icons/png/16/calendar.png"
       inkscape:export-xdpi="8"
       inkscape:export-ydpi="8" /><path
       sodipodi:type="arc"
       style="fill:#000000;stroke:none"
       id="path3006"
       sodipodi:cx="150"
       sodipodi:cy="50"
       sodipodi:rx="10"
       sodipodi:ry="10"
       d="m 160,50 a 10,10 0 1 1 -20,0 10,10 0 1 1 20,0 z"
       transform="translate(0,4.7071068)"
       inkscape:export-filename="/home/luiz/Dropbox/Amana Base Icons/png/16/calendar.png"
       inkscape:export-xdpi="8"
       inkscape:export-ydpi="8" /></g></svg>