<?xml version="1.0" encoding="UTF-8" standalone="no"?>
<!-- Created with Inkscape (http://www.inkscape.org/) -->

<svg
   xmlns:dc="http://purl.org/dc/elements/1.1/"
   xmlns:cc="http://creativecommons.org/ns#"
   xmlns:rdf="http://www.w3.org/1999/02/22-rdf-syntax-ns#"
   xmlns:svg="http://www.w3.org/2000/svg"
   xmlns="http://www.w3.org/2000/svg"
   xmlns:sodipodi="http://sodipodi.sourceforge.net/DTD/sodipodi-0.dtd"
   xmlns:inkscape="http://www.inkscape.org/namespaces/inkscape"
   id="svg2"
   version="1.1"
   inkscape:version="0.48.3.1 r9886"
   width="240"
   height="240"
   xml:space="preserve"
   sodipodi:docname="drupal.svg"
   inkscape:export-filename="/home/canetquintiere/Dropbox/Amana Base Icons/png/16/drupal.png"
   inkscape:export-xdpi="6"
   inkscape:export-ydpi="6"><title
     id="title2990">Amana Base Drupal Icon</title><metadata
     id="metadata8"><rdf:RDF><cc:Work
         rdf:about=""><dc:format>image/svg+xml</dc:format><dc:type
           rdf:resource="http://purl.org/dc/dcmitype/StillImage" /><dc:title>Amana Base Drupal Icon</dc:title><dc:creator><cc:Agent><dc:title>Luiz Henrique Canet Filho</dc:title></cc:Agent></dc:creator><dc:relation>Amana Base Icons</dc:relation><cc:license
           rdf:resource="http://creativecommons.org/licenses/by-sa/3.0/" /></cc:Work><cc:License
         rdf:about="http://creativecommons.org/licenses/by-sa/3.0/"><cc:permits
           rdf:resource="http://creativecommons.org/ns#Reproduction" /><cc:permits
           rdf:resource="http://creativecommons.org/ns#Distribution" /><cc:requires
           rdf:resource="http://creativecommons.org/ns#Notice" /><cc:requires
           rdf:resource="http://creativecommons.org/ns#Attribution" /><cc:permits
           rdf:resource="http://creativecommons.org/ns#DerivativeWorks" /><cc:requires
           rdf:resource="http://creativecommons.org/ns#ShareAlike" /></cc:License></rdf:RDF></metadata><defs
     id="defs6"><clipPath
   clipPathUnits="userSpaceOnUse"
   id="clipPath16"><path
     d="M 0,192 192,192 192,0 0,0 0,192 z"
     id="path18" /></clipPath>
			
			
			
			
			
			
			
			
			
		</defs><sodipodi:namedview
     pagecolor="#ffffff"
     bordercolor="#666666"
     borderopacity="1"
     objecttolerance="10"
     gridtolerance="10"
     guidetolerance="10"
     inkscape:pageopacity="0"
     inkscape:pageshadow="2"
     inkscape:window-width="1600"
     inkscape:window-height="876"
     id="namedview4"
     showgrid="true"
     inkscape:zoom="4"
     inkscape:cx="6.023817"
     inkscape:cy="125.81282"
     inkscape:window-x="0"
     inkscape:window-y="24"
     inkscape:window-maximized="1"
     inkscape:current-layer="layer1"
     showguides="true"
     inkscape:guide-bbox="true"
     inkscape:snap-global="true"
     inkscape:snap-nodes="true"
     inkscape:object-nodes="true"><inkscape:grid
       type="xygrid"
       id="grid3003" /><sodipodi:guide
       orientation="0,1"
       position="30,210"
       id="guide2993" /><sodipodi:guide
       orientation="1,0"
       position="30,210"
       id="guide2995" /><sodipodi:guide
       orientation="0,1"
       position="210,30"
       id="guide2997" /><sodipodi:guide
       orientation="1,0"
       position="210,30"
       id="guide2999" /></sodipodi:namedview><g
     inkscape:groupmode="layer"
     id="layer1"
     inkscape:label="Icon"
     style="display:inline"><path
       style="fill:#000000"
       d="M 113.53125 30.21875 C 112.31348 42.222487 108.84918 47.257123 104.5 50.5625 C 95.627673 57.521188 90.060807 59.606037 82.40625 63.78125 C 75.969464 67.260594 41 87.960208 41 132.84375 C 41 147.174 44.833705 160.3034 51.4375 171.53125 C 65.517246 195.46936 92.1476 210.78125 120.6875 210.78125 C 162.6136 210.78125 198.96875 180.35131 198.96875 134.25 C 198.96875 108.93291 188.69402 91.211295 178.5 79.8125 C 170.13125 70.454689 161.82227 65.34997 159.3125 63.78125 C 150.2662 58.040332 141.38586 55.772168 132.6875 50.03125 C 127.29451 46.551906 119.79407 37.69934 113.53125 30.21875 z M 104.15625 133.5625 C 124.51041 133.38853 138.57968 153.73647 148.84375 153.5625 C 157.54211 153.38854 174.26104 136.34375 182.4375 136.34375 C 191.13586 136.34375 193.5625 145.38827 193.5625 150.78125 C 193.5625 156.17423 191.83147 165.91114 187.65625 172 C 183.48104 178.08885 180.87108 180.34793 176 180 C 169.73718 179.4781 157.22124 160.00418 149.21875 159.65625 C 139.12865 159.30831 117.19151 180.6875 99.96875 180.6875 C 89.530717 180.6875 86.416844 179.13657 82.9375 176.875 C 77.718484 173.22169 75.107283 167.65456 75.28125 160 C 75.455217 146.43056 88.151263 133.73646 104.15625 133.5625 z "
       id="path3135"
       inkscape:export-filename="/home/canetquintiere/Dropbox/Amana Base Icons/png/16/drupal.png"
       inkscape:export-xdpi="7.9762611"
       inkscape:export-ydpi="7.9762611" /></g></svg>