<?xml version="1.0" encoding="UTF-8" standalone="no"?>
<!-- Created with Inkscape (http://www.inkscape.org/) -->

<svg
   xmlns:dc="http://purl.org/dc/elements/1.1/"
   xmlns:cc="http://creativecommons.org/ns#"
   xmlns:rdf="http://www.w3.org/1999/02/22-rdf-syntax-ns#"
   xmlns:svg="http://www.w3.org/2000/svg"
   xmlns="http://www.w3.org/2000/svg"
   xmlns:sodipodi="http://sodipodi.sourceforge.net/DTD/sodipodi-0.dtd"
   xmlns:inkscape="http://www.inkscape.org/namespaces/inkscape"
   id="svg2"
   version="1.1"
   inkscape:version="0.48.3.1 r9886"
   width="240"
   height="240"
   xml:space="preserve"
   sodipodi:docname="images.svg"><title
     id="title2991">Amana Base Images Icon</title><metadata
     id="metadata8"><rdf:RDF><cc:Work
         rdf:about=""><dc:format>image/svg+xml</dc:format><dc:type
           rdf:resource="http://purl.org/dc/dcmitype/StillImage" /><dc:title>Amana Base Images Icon</dc:title><cc:license
           rdf:resource="http://creativecommons.org/licenses/by-sa/3.0/" /><dc:creator><cc:Agent><dc:title>Luiz Henrique Canet Filho</dc:title></cc:Agent></dc:creator><dc:relation>Amana Base Icons</dc:relation></cc:Work><cc:License
         rdf:about="http://creativecommons.org/licenses/by-sa/3.0/"><cc:permits
           rdf:resource="http://creativecommons.org/ns#Reproduction" /><cc:permits
           rdf:resource="http://creativecommons.org/ns#Distribution" /><cc:requires
           rdf:resource="http://creativecommons.org/ns#Notice" /><cc:requires
           rdf:resource="http://creativecommons.org/ns#Attribution" /><cc:permits
           rdf:resource="http://creativecommons.org/ns#DerivativeWorks" /><cc:requires
           rdf:resource="http://creativecommons.org/ns#ShareAlike" /></cc:License></rdf:RDF></metadata><defs
     id="defs6"><clipPath
       clipPathUnits="userSpaceOnUse"
       id="clipPath16"><path
         d="M 0,192 192,192 192,0 0,0 0,192 z"
         id="path18" /></clipPath></defs><sodipodi:namedview
     pagecolor="#ffffff"
     bordercolor="#666666"
     borderopacity="1"
     objecttolerance="10"
     gridtolerance="10"
     guidetolerance="10"
     inkscape:pageopacity="0"
     inkscape:pageshadow="2"
     inkscape:window-width="1600"
     inkscape:window-height="876"
     id="namedview4"
     showgrid="true"
     inkscape:zoom="4"
     inkscape:cx="60.21833"
     inkscape:cy="129.504"
     inkscape:window-x="0"
     inkscape:window-y="24"
     inkscape:window-maximized="1"
     inkscape:current-layer="layer1"
     showguides="true"
     inkscape:guide-bbox="true"
     inkscape:snap-global="true"><inkscape:grid
       type="xygrid"
       id="grid3003" /><sodipodi:guide
       orientation="0,1"
       position="30,210"
       id="guide2993" /><sodipodi:guide
       orientation="1,0"
       position="30,210"
       id="guide2995" /><sodipodi:guide
       orientation="0,1"
       position="210,30"
       id="guide2997" /><sodipodi:guide
       orientation="1,0"
       position="210,30"
       id="guide2999" /></sodipodi:namedview><g
     inkscape:groupmode="layer"
     id="layer1"
     inkscape:label="Icon"
     style="display:inline"><a
       id="a2992" /><path
       id="path3073"
       style="fill:#000000;fill-opacity:1;stroke:none"
       d="m 35,50 c -2.77,0 -5,2.23 -5,5 l 0,105 c 0,2.77 2.23,5 5,5 l 10,0 0,-5 -10,0 0,-105 150,0 0,10 5,0 0,-10 c 0,-2.77 -2.23,-5 -5,-5 L 35,50 z m 103.78378,46.486486 c 0,7.164774 -5.8082,12.972974 -12.97297,12.972974 -7.16477,0 -12.97297,-5.8082 -12.97297,-12.972974 0,-7.164774 5.8082,-12.972972 12.97297,-12.972972 7.16477,0 12.97297,5.808198 12.97297,12.972972 z M 100,109.59459 l -34.72973,34.72973 0,25.67568 13.243244,0 -0.135136,-0.13514 L 119.32432,128.91892 100,109.59459 z M 169.18919,96.621622 95.783784,170 195,170 195,122.43243 169.18919,96.621622 z M 210,75 c 0,-2.77 -2.23,-5 -5,-5 L 55,70 c -2.77,0 -5,2.23 -5,5 l 0,105 c 0,2.77 2.23,5 5,5 l 150,0 c 2.77,0 5,-2.23 5,-5 z m -5,0 0,105 -150,0 0,-105 z" /></g></svg>