<?xml version="1.0" encoding="UTF-8" standalone="no"?>
<!-- Created with Inkscape (http://www.inkscape.org/) -->

<svg
   xmlns:dc="http://purl.org/dc/elements/1.1/"
   xmlns:cc="http://creativecommons.org/ns#"
   xmlns:rdf="http://www.w3.org/1999/02/22-rdf-syntax-ns#"
   xmlns:svg="http://www.w3.org/2000/svg"
   xmlns="http://www.w3.org/2000/svg"
   xmlns:sodipodi="http://sodipodi.sourceforge.net/DTD/sodipodi-0.dtd"
   xmlns:inkscape="http://www.inkscape.org/namespaces/inkscape"
   id="svg3128"
   version="1.1"
   inkscape:version="0.48.3.1 r9886"
   width="240"
   height="240"
   xml:space="preserve"
   sodipodi:docname="phone.svg"><title
     id="title2992">Amana Base Phone Icon</title><metadata
     id="metadata3134"><rdf:RDF><cc:Work
         rdf:about=""><dc:format>image/svg+xml</dc:format><dc:type
           rdf:resource="http://purl.org/dc/dcmitype/StillImage" /><dc:title>Amana Base Phone Icon</dc:title><dc:creator><cc:Agent><dc:title>Luiz Henrique Canet Filho</dc:title></cc:Agent></dc:creator><dc:relation>Amana Base Icon</dc:relation><cc:license
           rdf:resource="http://creativecommons.org/licenses/by-sa/3.0/" /></cc:Work><cc:License
         rdf:about="http://creativecommons.org/licenses/by-sa/3.0/"><cc:permits
           rdf:resource="http://creativecommons.org/ns#Reproduction" /><cc:permits
           rdf:resource="http://creativecommons.org/ns#Distribution" /><cc:requires
           rdf:resource="http://creativecommons.org/ns#Notice" /><cc:requires
           rdf:resource="http://creativecommons.org/ns#Attribution" /><cc:permits
           rdf:resource="http://creativecommons.org/ns#DerivativeWorks" /><cc:requires
           rdf:resource="http://creativecommons.org/ns#ShareAlike" /></cc:License></rdf:RDF></metadata><defs
     id="defs3132"><clipPath
       clipPathUnits="userSpaceOnUse"
       id="clipPath3142"><path
         d="M 0,192 192,192 192,0 0,0 0,192 z"
         id="path3144" /></clipPath></defs><sodipodi:namedview
     pagecolor="#ffffff"
     bordercolor="#666666"
     borderopacity="1"
     objecttolerance="10"
     gridtolerance="10"
     guidetolerance="10"
     inkscape:pageopacity="0"
     inkscape:pageshadow="2"
     inkscape:window-width="1600"
     inkscape:window-height="876"
     id="namedview3130"
     showgrid="false"
     inkscape:zoom="0.98333333"
     inkscape:cx="-141.86441"
     inkscape:cy="120"
     inkscape:window-x="0"
     inkscape:window-y="24"
     inkscape:window-maximized="1"
     inkscape:current-layer="g3136" /><g
     id="g3136"
     inkscape:groupmode="layer"
     inkscape:label="Amana Base Icons"
     transform="matrix(1.25,0,0,-1.25,0,240)"><g
       id="g3138"><g
         id="g3140"
         clip-path="url(#clipPath3142)"><g
           id="g3146"
           transform="translate(161.5996,149.6943)"><path
             d="m 0,0 -0.707,0.707 -33.941,-33.941 1.06,-1.061 c 4.95,-4.95 12.285,-3.979 16.971,0.707 L 0.354,-16.617 C 5.04,-11.931 4.95,-4.95 0,0"
             style="fill:#000000;fill-opacity:1;fill-rule:nonzero;stroke:none"
             id="path3148" /></g><g
           id="g3150"
           transform="translate(71.7969,69.791)"><path
             d="m 0,0 -4.242,4.243 c -4.243,4.242 -4.333,12.637 0.353,17.324 l 33.942,33.941 c 4.685,4.686 12.727,3.535 16.969,-0.707 l 3.89,-3.889 33.942,33.941 -4.244,4.243 C 64.347,105.359 24.318,92.201 -8.485,59.397 -41.289,26.593 -54.447,-13.435 -38.184,-29.698 L -33.94,-33.941 0,0 z"
             style="fill:#000000;fill-opacity:1;fill-rule:nonzero;stroke:none"
             id="path3152" /></g><g
           id="g3154"
           transform="translate(76.7471,64.8413)"><path
             d="m 0,0 -0.707,0.707 -33.941,-33.941 0.707,-0.707 c 4.95,-4.95 12.637,-4.333 17.324,0.354 l 16.971,16.97 C 5.04,-11.931 4.949,-4.95 0,0"
             style="fill:#000000;fill-opacity:1;fill-rule:nonzero;stroke:none"
             id="path3156" /></g></g></g></g></svg>