<?xml version="1.0" encoding="UTF-8" standalone="no"?>
<!-- Created with Inkscape (http://www.inkscape.org/) -->

<svg
   xmlns:dc="http://purl.org/dc/elements/1.1/"
   xmlns:cc="http://creativecommons.org/ns#"
   xmlns:rdf="http://www.w3.org/1999/02/22-rdf-syntax-ns#"
   xmlns:svg="http://www.w3.org/2000/svg"
   xmlns="http://www.w3.org/2000/svg"
   xmlns:sodipodi="http://sodipodi.sourceforge.net/DTD/sodipodi-0.dtd"
   xmlns:inkscape="http://www.inkscape.org/namespaces/inkscape"
   id="svg3004"
   version="1.1"
   inkscape:version="0.48.3.1 r9886"
   width="240"
   height="240"
   xml:space="preserve"
   sodipodi:docname="team.svg"
   inkscape:export-filename="/home/luiz/Dropbox/Amana Base Icons/png/16/team.png"
   inkscape:export-xdpi="8"
   inkscape:export-ydpi="8"><title
     id="title2999">Amana Base Team Icon</title><metadata
     id="metadata3010"><rdf:RDF><cc:Work
         rdf:about=""><dc:format>image/svg+xml</dc:format><dc:type
           rdf:resource="http://purl.org/dc/dcmitype/StillImage" /><dc:title>Amana Base Team Icon</dc:title><dc:creator><cc:Agent><dc:title>Luiz Henrique Canet Filho</dc:title></cc:Agent></dc:creator><dc:relation>Amana Base Icons</dc:relation><cc:license
           rdf:resource="http://creativecommons.org/licenses/by-sa/3.0/" /></cc:Work><cc:License
         rdf:about="http://creativecommons.org/licenses/by-sa/3.0/"><cc:permits
           rdf:resource="http://creativecommons.org/ns#Reproduction" /><cc:permits
           rdf:resource="http://creativecommons.org/ns#Distribution" /><cc:requires
           rdf:resource="http://creativecommons.org/ns#Notice" /><cc:requires
           rdf:resource="http://creativecommons.org/ns#Attribution" /><cc:permits
           rdf:resource="http://creativecommons.org/ns#DerivativeWorks" /><cc:requires
           rdf:resource="http://creativecommons.org/ns#ShareAlike" /></cc:License></rdf:RDF></metadata><defs
     id="defs3008"><inkscape:path-effect
       effect="interpolate"
       id="path-effect3053"
       is_visible="true"
       trajectory="M 0,0 0,0"
       equidistant_spacing="true"
       steps="5" /><inkscape:path-effect
       effect="interpolate"
       id="path-effect3050"
       is_visible="true"
       trajectory="M 0,0 0,0"
       equidistant_spacing="true"
       steps="16" /><inkscape:path-effect
       effect="knot"
       id="path-effect3048"
       is_visible="true"
       interruption_width="1"
       prop_to_stroke_width="true"
       add_stroke_width="true"
       add_other_stroke_width="true"
       switcher_size="15"
       crossing_points_vector="0 | 0 | 0 | 0 | 0 | 1 | 0 | 5 | 1" /><clipPath
       clipPathUnits="userSpaceOnUse"
       id="clipPath3018"><path
         d="M 0,192 192,192 192,0 0,0 0,192 z"
         id="path3020" /></clipPath></defs><sodipodi:namedview
     pagecolor="#ffffff"
     bordercolor="#666666"
     borderopacity="1"
     objecttolerance="10"
     gridtolerance="10"
     guidetolerance="10"
     inkscape:pageopacity="0"
     inkscape:pageshadow="2"
     inkscape:window-width="1600"
     inkscape:window-height="876"
     id="namedview3006"
     showgrid="true"
     inkscape:zoom="2.7226563"
     inkscape:cx="27.537924"
     inkscape:cy="97.69466"
     inkscape:window-x="0"
     inkscape:window-y="24"
     inkscape:window-maximized="1"
     inkscape:current-layer="g3012"
     showguides="true"
     inkscape:guide-bbox="true"><inkscape:grid
       type="xygrid"
       id="grid2990"
       empspacing="5"
       visible="true"
       enabled="true"
       snapvisiblegridlinesonly="true" /><sodipodi:guide
       orientation="0,1"
       position="30,210"
       id="guide2992" /><sodipodi:guide
       orientation="1,0"
       position="30,210"
       id="guide2994" /><sodipodi:guide
       orientation="0,1"
       position="210,30"
       id="guide2996" /><sodipodi:guide
       orientation="1,0"
       position="210,30"
       id="guide2998" /></sodipodi:namedview><g
     id="g3012"
     inkscape:groupmode="layer"
     inkscape:label="Amana Base Icons"
     transform="matrix(1.25,0,0,-1.25,0,240)"><path
       inkscape:connector-curvature="0"
       id="path3024"
       style="fill:#000000;fill-opacity:1;fill-rule:nonzero;stroke:none"
       d="m 114,101.9999 c 0,-9.941475 -8.05898,-17.999947 -17.99995,-17.999947 -9.940972,0 -17.99995,8.058472 -17.99995,17.999947 0,9.94147 8.058978,17.99996 17.99995,17.99996 9.94097,0 17.99995,-8.05848 17.99995,-17.99995"
       inkscape:export-filename="/home/luiz/Dropbox/Amana Base Icons/png/16/team.png"
       inkscape:export-xdpi="8"
       inkscape:export-ydpi="8" /><path
       inkscape:connector-curvature="0"
       style="fill:#000000;fill-opacity:1;fill-rule:nonzero;stroke:#000000;stroke-opacity:1"
       d="m 108.74856,81.669406 c -3.69449,-2.321994 -8.06298,-3.66949 -12.748465,-3.66949 -4.685486,0 -9.053974,1.347496 -12.748464,3.66949 C 69.663168,76.52142 60.000196,63.391957 60.000196,48 L 132,48 c 0,15.391957 -9.66297,28.52142 -23.25144,33.669406"
       inkscape:export-filename="/home/luiz/Dropbox/Amana Base Icons/png/16/team.png"
       inkscape:export-xdpi="8"
       inkscape:export-ydpi="8"
       id="path18" /><path
       d="m 150,121.99987 c 0,-9.94147 -8.05898,-17.99995 -17.99995,-17.99995 -9.94097,0 -17.99995,8.05848 -17.99995,17.99995 0,9.94149 8.05898,17.99995 17.99995,17.99995 9.94097,0 17.99995,-8.05847 17.99995,-17.99995"
       style="fill:#000000;fill-opacity:1;fill-rule:nonzero;stroke:none"
       id="path3000"
       inkscape:connector-curvature="0"
       inkscape:export-filename="/home/luiz/Dropbox/Amana Base Icons/png/16/team.png"
       inkscape:export-xdpi="8"
       inkscape:export-ydpi="8" /><path
       style="fill:#000000;fill-opacity:1;fill-rule:nonzero;stroke:none"
       d="m 144.75,101.67497 c -3.69449,-2.321995 -8.06451,-3.674995 -12.75,-3.674995 -4.38657,0 -8.48706,1.19397 -12.025,3.249995 -0.20525,-6.613975 -3.09006,-12.555775 -7.6,-16.774995 7.66902,-3.452176 14.0619,-9.252024 18.25,-16.475 l 37.375,0 c 0,15.39196 -9.66153,28.52701 -23.25,33.674995 z"
       id="path3876"
       inkscape:connector-curvature="0"
       inkscape:export-filename="/home/luiz/Dropbox/Amana Base Icons/png/16/team.png"
       inkscape:export-xdpi="8"
       inkscape:export-ydpi="8" /><path
       inkscape:connector-curvature="0"
       id="path3007"
       style="fill:#000000;fill-opacity:1;fill-rule:nonzero;stroke:none"
       d="m 77.999805,121.99987 c 0,-9.94147 -8.058981,-17.99995 -17.99995,-17.99995 -9.940972,0 -17.99995,8.05848 -17.99995,17.99995 0,9.94149 8.058978,17.99995 17.99995,17.99995 9.940969,0 17.99995,-8.05847 17.99995,-17.99995"
       inkscape:export-filename="/home/luiz/Dropbox/Amana Base Icons/png/16/team.png"
       inkscape:export-xdpi="8"
       inkscape:export-ydpi="8" /><path
       style="fill:#000000;fill-opacity:1;fill-rule:nonzero;stroke:none"
       d="M 47.25,101.67497 C 33.661538,96.526985 24,83.391935 24,67.999975 l 37.375,0 c 4.188104,7.222976 10.580991,13.022824 18.25,16.475 -4.509939,4.21922 -7.394754,10.16102 -7.6,16.774995 C 68.487055,99.193945 64.38657,97.999975 60,97.999975 c -4.685487,0 -9.05551,1.353 -12.75,3.674995 z"
       id="path3880"
       inkscape:connector-curvature="0"
       inkscape:export-filename="/home/luiz/Dropbox/Amana Base Icons/png/16/team.png"
       inkscape:export-xdpi="8"
       inkscape:export-ydpi="8" /></g></svg>