<?xml version="1.0" encoding="UTF-8" standalone="no"?>
<!-- Created with Inkscape (http://www.inkscape.org/) -->

<svg
   xmlns:dc="http://purl.org/dc/elements/1.1/"
   xmlns:cc="http://creativecommons.org/ns#"
   xmlns:rdf="http://www.w3.org/1999/02/22-rdf-syntax-ns#"
   xmlns:svg="http://www.w3.org/2000/svg"
   xmlns="http://www.w3.org/2000/svg"
   xmlns:sodipodi="http://sodipodi.sourceforge.net/DTD/sodipodi-0.dtd"
   xmlns:inkscape="http://www.inkscape.org/namespaces/inkscape"
   id="svg2"
   version="1.1"
   inkscape:version="0.48.3.1 r9886"
   width="240"
   height="240"
   xml:space="preserve"
   sodipodi:docname="video.svg"><title
     id="title2990">Amana Base Video Icon</title><metadata
     id="metadata8"><rdf:RDF><cc:Work
         rdf:about=""><dc:format>image/svg+xml</dc:format><dc:type
           rdf:resource="http://purl.org/dc/dcmitype/StillImage" /><dc:title>Amana Base Video Icon</dc:title><dc:creator><cc:Agent><dc:title>Luiz Henrique Canet Filho</dc:title></cc:Agent></dc:creator><dc:relation>Amana Base Icon</dc:relation><cc:license
           rdf:resource="http://creativecommons.org/licenses/by-sa/3.0/" /></cc:Work><cc:License
         rdf:about="http://creativecommons.org/licenses/by-sa/3.0/"><cc:permits
           rdf:resource="http://creativecommons.org/ns#Reproduction" /><cc:permits
           rdf:resource="http://creativecommons.org/ns#Distribution" /><cc:requires
           rdf:resource="http://creativecommons.org/ns#Notice" /><cc:requires
           rdf:resource="http://creativecommons.org/ns#Attribution" /><cc:permits
           rdf:resource="http://creativecommons.org/ns#DerivativeWorks" /><cc:requires
           rdf:resource="http://creativecommons.org/ns#ShareAlike" /></cc:License></rdf:RDF></metadata><defs
     id="defs6"><clipPath
       clipPathUnits="userSpaceOnUse"
       id="clipPath16"><path
         d="M 0,192 192,192 192,0 0,0 0,192 z"
         id="path18" /></clipPath></defs><sodipodi:namedview
     pagecolor="#ffffff"
     bordercolor="#666666"
     borderopacity="1"
     objecttolerance="10"
     gridtolerance="10"
     guidetolerance="10"
     inkscape:pageopacity="0"
     inkscape:pageshadow="2"
     inkscape:window-width="1600"
     inkscape:window-height="876"
     id="namedview4"
     showgrid="true"
     inkscape:zoom="2.8284271"
     inkscape:cx="-34.375824"
     inkscape:cy="149.52343"
     inkscape:window-x="0"
     inkscape:window-y="24"
     inkscape:window-maximized="1"
     inkscape:current-layer="layer1"
     showguides="true"
     inkscape:guide-bbox="true"
     inkscape:snap-global="true"><inkscape:grid
       type="xygrid"
       id="grid3003" /><sodipodi:guide
       orientation="0,1"
       position="30,210"
       id="guide2993" /><sodipodi:guide
       orientation="1,0"
       position="30,210"
       id="guide2995" /><sodipodi:guide
       orientation="0,1"
       position="210,30"
       id="guide2997" /><sodipodi:guide
       orientation="1,0"
       position="210,30"
       id="guide2999" /></sodipodi:namedview><g
     inkscape:groupmode="layer"
     id="layer1"
     inkscape:label="Icon"
     style="display:inline"><path
       style="fill:#000000;fill-opacity:1;stroke:none"
       d="M 40 55 C 37.23 55 35 57.23 35 60 L 35 180 C 35 182.77 37.23 185 40 185 L 200 185 C 202.77 185 205 182.77 205 180 L 205 60 C 205 57.23 202.77 55 200 55 L 40 55 z M 45 65 L 55 65 L 55 75 L 45 75 L 45 65 z M 65 65 L 75 65 L 75 75 L 65 75 L 65 65 z M 85 65 L 95 65 L 95 75 L 85 75 L 85 65 z M 105 65 L 115 65 L 115 75 L 105 75 L 105 65 z M 125 65 L 135 65 L 135 75 L 125 75 L 125 65 z M 145 65 L 155 65 L 155 75 L 145 75 L 145 65 z M 165 65 L 175 65 L 175 75 L 165 75 L 165 65 z M 185 65 L 195 65 L 195 75 L 185 75 L 185 65 z M 97.5 94.03125 L 120 107 L 142.5 120 L 120 133 L 97.5 145.96875 L 97.5 120 L 97.5 94.03125 z M 45 165 L 55 165 L 55 175 L 45 175 L 45 165 z M 65 165 L 75 165 L 75 175 L 65 175 L 65 165 z M 85 165 L 95 165 L 95 175 L 85 175 L 85 165 z M 105 165 L 115 165 L 115 175 L 105 175 L 105 165 z M 125 165 L 135 165 L 135 175 L 125 175 L 125 165 z M 145 165 L 155 165 L 155 175 L 145 175 L 145 165 z M 165 165 L 175 165 L 175 175 L 165 175 L 165 165 z M 185 165 L 195 165 L 195 175 L 185 175 L 185 165 z "
       id="path3041" /></g></svg>