<?xml version="1.0" encoding="UTF-8" standalone="no"?>
<!-- Created with Inkscape (http://www.inkscape.org/) -->

<svg
   xmlns:dc="http://purl.org/dc/elements/1.1/"
   xmlns:cc="http://creativecommons.org/ns#"
   xmlns:rdf="http://www.w3.org/1999/02/22-rdf-syntax-ns#"
   xmlns:svg="http://www.w3.org/2000/svg"
   xmlns="http://www.w3.org/2000/svg"
   xmlns:sodipodi="http://sodipodi.sourceforge.net/DTD/sodipodi-0.dtd"
   xmlns:inkscape="http://www.inkscape.org/namespaces/inkscape"
   id="svg2"
   version="1.1"
   inkscape:version="0.48.3.1 r9886"
   width="240"
   height="240"
   xml:space="preserve"
   sodipodi:docname="web-standards.svg"
   inkscape:export-filename="/home/luiz/Dropbox/Amana Base Icons/png/16/web-planning.png"
   inkscape:export-xdpi="8"
   inkscape:export-ydpi="8"><title
     id="title2997">Amana Base Web Standards Icon</title><metadata
     id="metadata8"><rdf:RDF><cc:Work
         rdf:about=""><dc:format>image/svg+xml</dc:format><dc:type
           rdf:resource="http://purl.org/dc/dcmitype/StillImage" /><dc:title>Amana Base Web Standards Icon</dc:title><dc:creator><cc:Agent><dc:title>Luiz Henrique Canet Filho</dc:title></cc:Agent></dc:creator><dc:relation>Amana Base Icons</dc:relation><cc:license
           rdf:resource="http://creativecommons.org/licenses/by-sa/3.0/" /></cc:Work><cc:License
         rdf:about="http://creativecommons.org/licenses/by-sa/3.0/"><cc:permits
           rdf:resource="http://creativecommons.org/ns#Reproduction" /><cc:permits
           rdf:resource="http://creativecommons.org/ns#Distribution" /><cc:requires
           rdf:resource="http://creativecommons.org/ns#Notice" /><cc:requires
           rdf:resource="http://creativecommons.org/ns#Attribution" /><cc:permits
           rdf:resource="http://creativecommons.org/ns#DerivativeWorks" /><cc:requires
           rdf:resource="http://creativecommons.org/ns#ShareAlike" /></cc:License></rdf:RDF></metadata><defs
     id="defs6"><clipPath
       clipPathUnits="userSpaceOnUse"
       id="clipPath16"><path
         d="M 0,192 192,192 192,0 0,0 0,192 z"
         id="path18" /></clipPath><clipPath
       id="clipPath16-9"
       clipPathUnits="userSpaceOnUse"><path
         id="path18-0"
         d="M 0,192 192,192 192,0 0,0 0,192 z" /></clipPath></defs><sodipodi:namedview
     pagecolor="#ffffff"
     bordercolor="#666666"
     borderopacity="1"
     objecttolerance="10"
     gridtolerance="10"
     guidetolerance="10"
     inkscape:pageopacity="0"
     inkscape:pageshadow="2"
     inkscape:window-width="1600"
     inkscape:window-height="876"
     id="namedview4"
     showgrid="true"
     inkscape:zoom="2.8284271"
     inkscape:cx="6.1501741"
     inkscape:cy="147.0049"
     inkscape:window-x="0"
     inkscape:window-y="24"
     inkscape:window-maximized="1"
     inkscape:current-layer="text3120"
     showguides="true"
     inkscape:guide-bbox="true"
     inkscape:snap-global="true"><inkscape:grid
       type="xygrid"
       id="grid3003" /><sodipodi:guide
       orientation="0,1"
       position="30,210"
       id="guide2993" /><sodipodi:guide
       orientation="1,0"
       position="30,210"
       id="guide2995" /><sodipodi:guide
       orientation="0,1"
       position="210,30"
       id="guide2997" /><sodipodi:guide
       orientation="1,0"
       position="210,30"
       id="guide2999" /></sodipodi:namedview><g
     inkscape:groupmode="layer"
     id="layer1"
     inkscape:label="Icon"
     style="display:inline"><rect
       style="fill:#000000;fill-opacity:1;stroke:none"
       id="rect3266"
       width="30"
       height="10"
       x="105"
       y="175"
       inkscape:export-filename="/home/luiz/.gvfs/public em ocara/AmanaTykyra/AmanaTraining/icons/web-planning.png"
       inkscape:export-xdpi="25"
       inkscape:export-ydpi="25" /><rect
       style="fill:#000000;fill-opacity:1;stroke:none"
       id="rect3268"
       width="60"
       height="10"
       x="90"
       y="190"
       rx="5"
       ry="5"
       inkscape:export-filename="/home/luiz/.gvfs/public em ocara/AmanaTykyra/AmanaTraining/icons/web-planning.png"
       inkscape:export-xdpi="25"
       inkscape:export-ydpi="25" /><g
       style="display:inline"
       inkscape:label="Icon"
       id="layer1-3"
       transform="translate(0,-25)"><path
   inkscape:connector-curvature="0"
   id="rect3002"
   d="m 210,70 c 0,-2.77 -2.23,-5 -5,-5 L 35,65 c -2.77,0 -5,2.23 -5,5 l 0,120 c 0,2.77 2.23,5 5,5 l 170,0 c 2.77,0 5,-2.23 5,-5 l 0,-120 z m -5,0 0,120 -170,0 0,-120 170,0 z"
   style="fill:#000000;fill-opacity:1;stroke:none" /><g
   style="font-size:40px;font-style:normal;font-variant:normal;font-weight:normal;font-stretch:normal;line-height:125%;letter-spacing:0px;word-spacing:0px;fill:#000000;fill-opacity:1;stroke:none;font-family:Corbel;-inkscape-font-specification:Corbel"
   id="text3120"><path
     d="m 69.277344,125.99609 -18.828125,6.48438 18.828125,6.44531 0,4.88281 -25.039063,-9.04297 0,-4.60937 25.039063,-9.04297 0,4.88281"
     style="font-weight:bold;font-family:Bitstream Vera Sans;-inkscape-font-specification:Bitstream Vera Sans"
     id="path3000" /><path
     d="m 74.921875,123.125 6.796875,0 3.671875,15.07812 3.691406,-15.07812 5.839844,0 3.671875,14.92187 3.69141,-14.92187 6.79687,0 L 103.32031,145 95.683594,145 91.992187,129.96094 88.320312,145 l -7.636718,0 -5.761719,-21.875"
     style="font-weight:bold;font-family:Bitstream Vera Sans;-inkscape-font-specification:Bitstream Vera Sans"
     id="path3002" /><path
     d="m 129.10156,129.27734 c 1.96613,0.50783 3.45701,1.39325 4.47266,2.65625 1.02862,1.25002 1.54294,2.84507 1.54297,4.78516 -3e-5,2.89063 -1.1068,5.09115 -3.32032,6.60156 -2.21356,1.4974 -5.44272,2.2461 -9.68749,2.2461 -1.49741,0 -3.00132,-0.1237 -4.51172,-0.3711 -1.49741,-0.23437 -2.98178,-0.59245 -4.45313,-1.07422 l 0,-5.80078 c 1.40625,0.70313 2.79947,1.23699 4.17969,1.60156 1.39322,0.35157 2.76041,0.52735 4.10156,0.52735 1.99218,0 3.51561,-0.34505 4.57031,-1.03516 1.0677,-0.6901 1.60155,-1.67968 1.60157,-2.96875 -2e-5,-1.32811 -0.5469,-2.33072 -1.64063,-3.00781 -1.08074,-0.69009 -2.6823,-1.03514 -4.80469,-1.03516 l -3.00781,0 0,-4.84375 3.16406,0 c 1.88801,2e-5 3.29426,-0.29295 4.21875,-0.8789 0.92447,-0.59894 1.38671,-1.50389 1.38672,-2.71485 -1e-5,-1.11977 -0.44923,-1.98565 -1.34765,-2.59765 -0.89846,-0.61196 -2.16799,-0.91795 -3.8086,-0.91797 -1.21095,2e-5 -2.4349,0.13674 -3.67187,0.41016 -1.23699,0.27346 -2.46746,0.6771 -3.69141,1.21093 l 0,-5.50781 c 1.48437,-0.41664 2.95572,-0.72914 4.41406,-0.9375 1.45833,-0.2083 2.89062,-0.31247 4.29688,-0.3125 3.78904,3e-5 6.62107,0.62503 8.49609,1.875 1.888,1.23701 2.83201,3.10549 2.83203,5.60547 -2e-5,1.70575 -0.44924,3.10549 -1.34765,4.19922 -0.89846,1.08074 -2.22659,1.84246 -3.98438,2.28515"
     style="font-weight:bold;font-family:Bitstream Vera Sans;-inkscape-font-specification:Bitstream Vera Sans"
     id="path3004" /><path
     d="m 162.46094,115.83984 4.33593,0 -10.29296,32.8711 -4.31641,0 10.27344,-32.8711"
     style="font-weight:bold;font-family:Bitstream Vera Sans;-inkscape-font-specification:Bitstream Vera Sans"
     id="path3006" /><path
     d="m 171.03516,125.99609 0,-4.88281 25.03906,9.04297 0,4.60937 -25.03906,9.04297 0,-4.88281 18.84765,-6.44531 -18.84765,-6.48438"
     style="font-weight:bold;font-family:Bitstream Vera Sans;-inkscape-font-specification:Bitstream Vera Sans"
     id="path3008" /></g>
</g></g></svg>