<?xml version="1.0" encoding="UTF-8" standalone="no"?>
<!-- Created with Inkscape (http://www.inkscape.org/) -->

<svg
   xmlns:dc="http://purl.org/dc/elements/1.1/"
   xmlns:cc="http://creativecommons.org/ns#"
   xmlns:rdf="http://www.w3.org/1999/02/22-rdf-syntax-ns#"
   xmlns:svg="http://www.w3.org/2000/svg"
   xmlns="http://www.w3.org/2000/svg"
   xmlns:sodipodi="http://sodipodi.sourceforge.net/DTD/sodipodi-0.dtd"
   xmlns:inkscape="http://www.inkscape.org/namespaces/inkscape"
   id="svg2"
   version="1.1"
   inkscape:version="0.48.3.1 r9886"
   width="240"
   height="240"
   xml:space="preserve"
   sodipodi:docname="web-planning.svg"
   inkscape:export-filename="/home/luiz/Dropbox/Amana Base Icons/png/16/web-planning.png"
   inkscape:export-xdpi="8"
   inkscape:export-ydpi="8"><title
     id="title3007">Amana Base Web Planning Icon</title><metadata
     id="metadata8"><rdf:RDF><cc:Work
         rdf:about=""><dc:format>image/svg+xml</dc:format><dc:type
           rdf:resource="http://purl.org/dc/dcmitype/StillImage" /><dc:title>Amana Base Web Planning Icon</dc:title><dc:creator><cc:Agent><dc:title>Luiz Henrique Canet Filho</dc:title></cc:Agent></dc:creator><dc:relation>Amana Base Icons</dc:relation><cc:license
           rdf:resource="http://creativecommons.org/licenses/by-sa/3.0/" /></cc:Work><cc:License
         rdf:about="http://creativecommons.org/licenses/by-sa/3.0/"><cc:permits
           rdf:resource="http://creativecommons.org/ns#Reproduction" /><cc:permits
           rdf:resource="http://creativecommons.org/ns#Distribution" /><cc:requires
           rdf:resource="http://creativecommons.org/ns#Notice" /><cc:requires
           rdf:resource="http://creativecommons.org/ns#Attribution" /><cc:permits
           rdf:resource="http://creativecommons.org/ns#DerivativeWorks" /><cc:requires
           rdf:resource="http://creativecommons.org/ns#ShareAlike" /></cc:License></rdf:RDF></metadata><defs
     id="defs6"><clipPath
       clipPathUnits="userSpaceOnUse"
       id="clipPath16"><path
         d="M 0,192 192,192 192,0 0,0 0,192 z"
         id="path18" /></clipPath></defs><sodipodi:namedview
     pagecolor="#ffffff"
     bordercolor="#666666"
     borderopacity="1"
     objecttolerance="10"
     gridtolerance="10"
     guidetolerance="10"
     inkscape:pageopacity="0"
     inkscape:pageshadow="2"
     inkscape:window-width="1600"
     inkscape:window-height="876"
     id="namedview4"
     showgrid="true"
     inkscape:zoom="2.8284271"
     inkscape:cx="6.1501741"
     inkscape:cy="147.0049"
     inkscape:window-x="0"
     inkscape:window-y="24"
     inkscape:window-maximized="1"
     inkscape:current-layer="layer1"
     showguides="true"
     inkscape:guide-bbox="true"
     inkscape:snap-global="true"><inkscape:grid
       type="xygrid"
       id="grid3003" /><sodipodi:guide
       orientation="0,1"
       position="30,210"
       id="guide2993" /><sodipodi:guide
       orientation="1,0"
       position="30,210"
       id="guide2995" /><sodipodi:guide
       orientation="0,1"
       position="210,30"
       id="guide2997" /><sodipodi:guide
       orientation="1,0"
       position="210,30"
       id="guide2999" /></sodipodi:namedview><g
     inkscape:groupmode="layer"
     id="layer1"
     inkscape:label="Icon"
     style="display:inline"><path
       style="fill:#000000;fill-opacity:1;stroke:none"
       d="m 35,55 c -2.77,0 -5,2.23 -5,5 l 0,80 c 0,2.77 2.23,5 5,5 l 100,0 0,-5 -100,0 0,-80 130,0 0,55 5,0 0,-55 c 0,-2.77 -2.23,-5 -5,-5 z"
       id="rect3002"
       inkscape:connector-curvature="0"
       sodipodi:nodetypes="sssscccccccsss"
       inkscape:export-filename="/home/luiz/.gvfs/public em ocara/AmanaTykyra/AmanaTraining/icons/web-planning.png"
       inkscape:export-xdpi="25"
       inkscape:export-ydpi="25" /><rect
       style="fill:#000000;fill-opacity:1;stroke:none"
       id="rect3266"
       width="30"
       height="10"
       x="85"
       y="150"
       inkscape:export-filename="/home/luiz/.gvfs/public em ocara/AmanaTykyra/AmanaTraining/icons/web-planning.png"
       inkscape:export-xdpi="25"
       inkscape:export-ydpi="25" /><rect
       style="fill:#000000;fill-opacity:1;stroke:none"
       id="rect3268"
       width="60"
       height="10"
       x="70"
       y="165"
       rx="5"
       ry="5"
       inkscape:export-filename="/home/luiz/.gvfs/public em ocara/AmanaTykyra/AmanaTraining/icons/web-planning.png"
       inkscape:export-xdpi="25"
       inkscape:export-ydpi="25" /><path
       style="fill:#000000;fill-opacity:1;stroke:none"
       d="m 175,120 c -19.32997,0 -35,15.67003 -35,35 0,19.32997 15.67003,35 35,35 19.32997,0 35,-15.67003 35,-35 0,-19.32997 -15.67003,-35 -35,-35 z m 0,5 c 16.56854,0 30,13.43146 30,30 0,16.56854 -13.43146,30 -30,30 -16.56854,0 -30,-13.43146 -30,-30 0,-16.56854 13.43146,-30 30,-30 z"
       id="path3270"
       inkscape:connector-curvature="0"
       inkscape:export-filename="/home/luiz/.gvfs/public em ocara/AmanaTykyra/AmanaTraining/icons/web-planning.png"
       inkscape:export-xdpi="25"
       inkscape:export-ydpi="25" /><path
       style="fill:#000000;fill-opacity:1;stroke:none"
       d="M 170 130 L 170 160 L 175 160 L 190 160 L 190 155 L 175 155 L 175 130 L 170 130 z "
       id="rect3281"
       inkscape:export-filename="/home/luiz/.gvfs/public em ocara/AmanaTykyra/AmanaTraining/icons/web-planning.png"
       inkscape:export-xdpi="25"
       inkscape:export-ydpi="25" /><rect
       style="fill:#000000;fill-opacity:1;stroke:none"
       id="rect3285"
       width="40"
       height="5"
       x="45"
       y="70"
       inkscape:export-filename="/home/luiz/.gvfs/public em ocara/AmanaTykyra/AmanaTraining/icons/web-planning.png"
       inkscape:export-xdpi="25"
       inkscape:export-ydpi="25" /><rect
       style="fill:#000000;fill-opacity:1;stroke:none"
       id="rect3287"
       width="30"
       height="5"
       x="55"
       y="80"
       inkscape:export-filename="/home/luiz/.gvfs/public em ocara/AmanaTykyra/AmanaTraining/icons/web-planning.png"
       inkscape:export-xdpi="25"
       inkscape:export-ydpi="25" /><rect
       style="fill:#000000;fill-opacity:1;stroke:none"
       id="rect3289"
       width="5"
       height="35"
       x="90"
       y="70"
       inkscape:export-filename="/home/luiz/.gvfs/public em ocara/AmanaTykyra/AmanaTraining/icons/web-planning.png"
       inkscape:export-xdpi="25"
       inkscape:export-ydpi="25" /><rect
       style="fill:#000000;fill-opacity:1;stroke:none"
       id="rect3291"
       width="15"
       height="5"
       x="100"
       y="80"
       inkscape:export-filename="/home/luiz/.gvfs/public em ocara/AmanaTykyra/AmanaTraining/icons/web-planning.png"
       inkscape:export-xdpi="25"
       inkscape:export-ydpi="25" /><rect
       style="fill:#000000;fill-opacity:1;stroke:none"
       id="rect3293"
       width="5"
       height="5"
       x="80"
       y="90"
       inkscape:export-filename="/home/luiz/.gvfs/public em ocara/AmanaTykyra/AmanaTraining/icons/web-planning.png"
       inkscape:export-xdpi="25"
       inkscape:export-ydpi="25" /><rect
       style="fill:#000000;fill-opacity:1;stroke:none"
       id="rect3295"
       width="25"
       height="5"
       x="100"
       y="90"
       inkscape:export-filename="/home/luiz/.gvfs/public em ocara/AmanaTykyra/AmanaTraining/icons/web-planning.png"
       inkscape:export-xdpi="25"
       inkscape:export-ydpi="25" /><rect
       style="fill:#000000;fill-opacity:1;stroke:none"
       id="rect3297"
       width="25"
       height="5"
       x="115"
       y="100"
       inkscape:export-filename="/home/luiz/.gvfs/public em ocara/AmanaTykyra/AmanaTraining/icons/web-planning.png"
       inkscape:export-xdpi="25"
       inkscape:export-ydpi="25" /><g
       style="font-size:40px;font-style:normal;font-variant:normal;font-weight:normal;font-stretch:normal;line-height:125%;letter-spacing:0px;word-spacing:0px;fill:#000000;fill-opacity:1;stroke:none;font-family:Corbel;-inkscape-font-specification:Corbel"
       id="text3299"><path
         d="m 49.962891,134.69922 c -0.701828,-0.0215 -1.364262,-0.0824 -1.987305,-0.18262 -0.615888,-0.10742 -1.127932,-0.25423 -1.536133,-0.44043 l 0,-2.10547 c 0.279295,0.10027 0.55143,0.18978 0.816406,0.26856 0.264972,0.0716 0.537107,0.13607 0.816407,0.19336 0.279293,0.0501 0.572913,0.0931 0.880859,0.1289 0.307938,0.0286 0.644527,0.0466 1.009766,0.0537 l 0,-2.35253 c -0.451177,-0.0644 -0.898767,-0.15039 -1.342774,-0.25782 -0.444013,-0.11458 -0.845055,-0.28287 -1.203125,-0.50488 -0.350913,-0.222 -0.637371,-0.51562 -0.859375,-0.88086 -0.222006,-0.36523 -0.333009,-0.83788 -0.333008,-1.41797 -10e-7,-0.47265 0.08594,-0.89159 0.257813,-1.25683 0.171873,-0.37239 0.418943,-0.69108 0.741211,-0.95606 0.322263,-0.27212 0.712562,-0.49055 1.170898,-0.65527 0.465491,-0.1647 0.988277,-0.27929 1.56836,-0.34375 l 0,-1.10645 1.708007,0 0,1.07422 c 0.52278,0.0287 1.052727,0.0895 1.589844,0.18262 0.544262,0.0859 1.041983,0.20769 1.493164,0.36523 l 0,2.12696 c -1.102873,-0.35807 -2.130541,-0.55859 -3.083008,-0.60157 l 0,2.38477 c 0.451165,0.0716 0.895175,0.1683 1.332032,0.29004 0.444002,0.11459 0.837881,0.28646 1.18164,0.51562 0.350902,0.22201 0.63378,0.51563 0.848633,0.88086 0.221995,0.36524 0.332998,0.83432 0.333008,1.40723 -1e-5,0.91667 -0.322276,1.63639 -0.966797,2.15918 -0.637378,0.52279 -1.546883,0.84863 -2.728516,0.97754 l 0,1.10644 -1.708007,0 0,-1.05273 m -1.385743,-7.60547 c -3e-6,0.30079 0.11458,0.52996 0.34375,0.6875 0.229163,0.15756 0.576493,0.2793 1.041993,0.36523 l 0,-2.0625 c -0.522791,0.0573 -0.884445,0.17547 -1.084961,0.3545 -0.200525,0.17188 -0.300785,0.3903 -0.300782,0.65527 m 4.425782,4.45801 c -8e-6,-0.30078 -0.111011,-0.52637 -0.333008,-0.67676 -0.214851,-0.15755 -0.547859,-0.27571 -0.999024,-0.35449 l 0,2.01953 c 0.888014,-0.11458 1.332024,-0.44401 1.332032,-0.98828"
         style="font-size:22px;font-weight:bold;fill:#000000;-inkscape-font-specification:Corbel Bold"
         id="path4123" /><path
         d="m 61.188477,132.84082 0,-5.54297 -3.620118,1.03125 0,-2.25586 4.210938,-1.48242 1.955078,0 0,8.25 3.029297,0 0,2.15918 -8.980469,0 0,-2.15918 3.405274,0"
         style="font-size:22px;font-weight:bold;fill:#000000;-inkscape-font-specification:Corbel Bold"
         id="path4125" /><path
         d="m 75.475586,129.80078 c -8e-6,-1.08853 -0.200529,-1.92284 -0.601563,-2.50293 -0.401048,-0.58723 -0.977545,-0.88085 -1.729492,-0.88086 -0.759119,1e-5 -1.339197,0.29363 -1.740234,0.88086 -0.401045,0.58009 -0.601566,1.4144 -0.601563,2.50293 -3e-6,1.08855 0.200518,1.92644 0.601563,2.51367 0.401037,0.58008 0.981115,0.87012 1.740234,0.87012 0.751947,0 1.328444,-0.29004 1.729492,-0.87012 0.401034,-0.58723 0.601555,-1.42512 0.601563,-2.51367 m 2.631836,0 c -1.1e-5,0.7806 -0.107433,1.50391 -0.322266,2.16992 -0.207692,0.66602 -0.519215,1.24252 -0.93457,1.7295 -0.415374,0.48698 -0.934579,0.87011 -1.557617,1.14941 -0.615893,0.2793 -1.332038,0.41894 -2.148438,0.41894 -0.802088,0 -1.511072,-0.13964 -2.126953,-0.41894 -0.615888,-0.2793 -1.135093,-0.66243 -1.557617,-1.14941 -0.422528,-0.48698 -0.744793,-1.06348 -0.966797,-1.7295 -0.214844,-0.66601 -0.322266,-1.38932 -0.322266,-2.16992 0,-0.78059 0.107422,-1.5039 0.322266,-2.16992 0.222004,-0.66601 0.544269,-1.24251 0.966797,-1.72949 0.422524,-0.49413 0.941729,-0.87727 1.557617,-1.14942 0.615881,-0.27928 1.324865,-0.41893 2.126953,-0.41894 0.8164,1e-5 1.532545,0.13966 2.148438,0.41894 0.623038,0.27215 1.142243,0.65529 1.557617,1.14942 0.415355,0.48698 0.726878,1.06348 0.93457,1.72949 0.214833,0.66602 0.322255,1.38933 0.322266,2.16992"
         style="font-size:22px;font-weight:bold;fill:#000000;-inkscape-font-specification:Corbel Bold"
         id="path4127" /><path
         d="m 86.819336,129.80078 c -8e-6,-1.08853 -0.200529,-1.92284 -0.601563,-2.50293 -0.401048,-0.58723 -0.977545,-0.88085 -1.729492,-0.88086 -0.759119,1e-5 -1.339197,0.29363 -1.740234,0.88086 -0.401045,0.58009 -0.601566,1.4144 -0.601563,2.50293 -3e-6,1.08855 0.200518,1.92644 0.601563,2.51367 0.401037,0.58008 0.981115,0.87012 1.740234,0.87012 0.751947,0 1.328444,-0.29004 1.729492,-0.87012 0.401034,-0.58723 0.601555,-1.42512 0.601563,-2.51367 m 2.631836,0 c -1.1e-5,0.7806 -0.107433,1.50391 -0.322266,2.16992 -0.207692,0.66602 -0.519215,1.24252 -0.93457,1.7295 -0.415374,0.48698 -0.934579,0.87011 -1.557617,1.14941 -0.615893,0.2793 -1.332038,0.41894 -2.148438,0.41894 -0.802088,0 -1.511072,-0.13964 -2.126953,-0.41894 -0.615888,-0.2793 -1.135093,-0.66243 -1.557617,-1.14941 -0.422528,-0.48698 -0.744793,-1.06348 -0.966797,-1.7295 -0.214844,-0.66601 -0.322266,-1.38932 -0.322266,-2.16992 0,-0.78059 0.107422,-1.5039 0.322266,-2.16992 0.222004,-0.66601 0.544269,-1.24251 0.966797,-1.72949 0.422524,-0.49413 0.941729,-0.87727 1.557617,-1.14942 0.615881,-0.27928 1.324865,-0.41893 2.126953,-0.41894 0.8164,1e-5 1.532545,0.13966 2.148438,0.41894 0.623038,0.27215 1.142243,0.65529 1.557617,1.14942 0.415355,0.48698 0.726878,1.06348 0.93457,1.72949 0.214833,0.66602 0.322255,1.38933 0.322266,2.16992"
         style="font-size:22px;font-weight:bold;fill:#000000;-inkscape-font-specification:Corbel Bold"
         id="path4129" /><path
         d="m 98.163086,129.80078 c -8e-6,-1.08853 -0.200529,-1.92284 -0.601563,-2.50293 -0.401048,-0.58723 -0.977545,-0.88085 -1.729492,-0.88086 -0.759119,1e-5 -1.339197,0.29363 -1.740234,0.88086 -0.401045,0.58009 -0.601566,1.4144 -0.601563,2.50293 -3e-6,1.08855 0.200518,1.92644 0.601563,2.51367 0.401037,0.58008 0.981115,0.87012 1.740234,0.87012 0.751947,0 1.328444,-0.29004 1.729492,-0.87012 0.401034,-0.58723 0.601555,-1.42512 0.601563,-2.51367 m 2.631834,0 c -1e-5,0.7806 -0.10743,1.50391 -0.32226,2.16992 -0.2077,0.66602 -0.519219,1.24252 -0.934574,1.7295 -0.415374,0.48698 -0.934579,0.87011 -1.557617,1.14941 -0.615893,0.2793 -1.332038,0.41894 -2.148438,0.41894 -0.802088,0 -1.511072,-0.13964 -2.126953,-0.41894 -0.615888,-0.2793 -1.135093,-0.66243 -1.557617,-1.14941 -0.422528,-0.48698 -0.744793,-1.06348 -0.966797,-1.7295 -0.214844,-0.66601 -0.322266,-1.38932 -0.322266,-2.16992 0,-0.78059 0.107422,-1.5039 0.322266,-2.16992 0.222004,-0.66601 0.544269,-1.24251 0.966797,-1.72949 0.422524,-0.49413 0.941729,-0.87727 1.557617,-1.14942 0.615881,-0.27928 1.324865,-0.41893 2.126953,-0.41894 0.8164,1e-5 1.532545,0.13966 2.148438,0.41894 0.623038,0.27215 1.142243,0.65529 1.557617,1.14942 0.415355,0.48698 0.726874,1.06348 0.934574,1.72949 0.21483,0.66602 0.32225,1.38933 0.32226,2.16992"
         style="font-size:22px;font-weight:bold;fill:#000000;-inkscape-font-specification:Corbel Bold"
         id="path4131" /></g></g></svg>